<svg width="157" height="186" viewBox="0 0 157 186" fill="none" xmlns="http://www.w3.org/2000/svg">
<circle cx="141.25" cy="68.877" r="14.75" fill="white"/>
<path d="M89.1131 139.544L82.0391 157.419L59.2151 172.336C56.9699 173.606 55.5816 175.986 55.5811 178.566C55.5811 182.524 58.7898 185.733 62.7481 185.733C64.2243 185.734 65.6644 185.276 66.8691 184.423C70.6301 182.052 89.2201 170.339 92.3641 168.543C95.8641 166.543 96.4891 163.418 96.4891 163.418L101.364 147.418L95.6141 144.793C89.8641 142.168 89.1131 139.544 89.1131 139.544Z" fill="white"/>
<path fill-rule="evenodd" clip-rule="evenodd" d="M139.321 141.462C139.321 141.462 138.163 137.628 134.742 136.295C131.321 134.962 116.655 128.545 116.655 128.545L132.071 102.961C132.071 102.961 135.905 93.961 131.738 89.544C127.571 85.127 117.988 79.794 117.988 79.794H110.467L126.266 52.993C129.62 47.307 127.709 39.912 122.024 36.561L72.6331 7.447C66.9471 4.095 59.5541 6.005 56.2021 11.691L9.14406 91.519C5.79306 97.204 7.70206 104.599 13.3881 107.951L62.7781 137.064C68.4641 140.416 75.8591 138.505 79.2101 132.822L102.144 93.919H110.24L95.4901 120.128C95.4901 120.128 90.3561 129.342 95.1561 134.378C99.3651 138.794 107.823 141.294 107.823 141.294L125.073 147.795L130.174 179.086L130.183 179.085C130.732 182.498 133.682 185.108 137.25 185.108C139.151 185.108 140.974 184.353 142.318 183.009C143.661 181.665 144.416 179.842 144.416 177.941C144.416 177.752 144.402 177.566 144.388 177.381L144.416 177.377L139.321 141.462ZM17.9581 100.198C16.5571 99.372 16.0711 97.49 16.8971 96.09L63.9561 16.261C64.7821 14.86 66.6631 14.373 68.0631 15.199L79.5841 21.991L29.4801 106.989L17.9581 100.198ZM67.3491 129.313C68.7491 130.139 70.6301 129.652 71.4561 128.252L89.2791 98.016L79.6191 105.8C79.4511 105.95 79.2771 106.09 79.0951 106.223L79.0241 106.281L79.0221 106.278C77.8121 107.144 76.3612 107.61 74.8731 107.609C70.9148 107.609 67.7061 104.4 67.7061 100.442C67.7058 98.4199 68.5627 96.4925 70.0641 95.138L70.0621 95.135L70.0931 95.113C70.4703 94.7732 70.8826 94.4745 71.3231 94.222L91.2391 79.795H100.022L118.515 48.423C119.34 47.023 118.855 45.142 117.453 44.316L87.3401 26.563L37.2331 111.559L67.3491 129.313Z" fill="white"/>
<path fill-rule="evenodd" clip-rule="evenodd" d="M49.219 5.94296L2.16103 85.772C-1.18997 91.457 0.719028 98.852 6.40503 102.204L55.795 131.317C61.481 134.669 68.876 132.758 72.227 127.075L119.284 47.246C122.638 41.56 120.727 34.165 115.042 30.814L65.65 1.69996C59.965 -1.65204 52.571 0.257963 49.219 5.94296ZM9.91403 90.343L56.973 10.514C57.799 9.11296 59.68 8.62596 61.08 9.45196L72.601 16.244L22.496 101.242L10.974 94.451C9.57403 93.625 9.08803 91.743 9.91403 90.343ZM64.472 122.505L111.531 42.676C112.355 41.275 111.871 39.394 110.468 38.569L80.355 20.816L30.249 105.812L60.365 123.566C61.765 124.392 63.646 123.905 64.472 122.505Z" fill="#F0C42E"/>
<circle cx="135.25" cy="63.083" r="14.75" fill="#3A3A3A"/>
<path fill-rule="evenodd" clip-rule="evenodd" d="M127.504 130.501C130.925 131.834 132.083 135.668 132.083 135.668L137.176 171.581L137.148 171.585C137.162 171.77 137.176 171.956 137.176 172.145C137.176 174.046 136.421 175.869 135.078 177.213C133.734 178.557 131.911 179.312 130.01 179.312C126.442 179.312 123.492 176.702 122.943 173.289L122.934 173.29L117.833 141.999L100.583 135.498C100.583 135.498 92.125 132.998 87.916 128.582C83.116 123.546 88.25 114.332 88.25 114.332L103 88.123H87.125L72.382 100.004C72.214 100.154 72.039 100.294 71.857 100.427L71.786 100.485L71.784 100.482C70.5741 101.348 69.1231 101.814 67.635 101.813C63.6768 101.813 60.468 98.6042 60.468 94.646C60.4678 92.6242 61.3247 90.6971 62.826 89.343L62.824 89.34L62.855 89.318C63.2325 88.9785 63.6448 88.6799 64.085 88.427L84 74H110.75C110.75 74 120.333 79.333 124.5 83.75C128.667 88.167 124.833 97.167 124.833 97.167L109.417 122.751C109.417 122.751 124.083 129.168 127.504 130.501ZM74.801 151.625L81.875 133.75C81.875 133.75 82.625 136.374 88.375 138.999L94.125 141.624L89.25 157.624C89.25 157.624 88.625 160.749 85.125 162.749C81.981 164.545 63.391 176.258 59.63 178.629C58.4254 179.482 56.9853 179.94 55.509 179.939C51.5508 179.939 48.342 176.73 48.342 172.772C48.3426 170.192 49.7309 167.812 51.976 166.542L74.801 151.625Z" fill="#3A3A3A"/>
</svg>
