<svg width="139" height="165" viewBox="0 0 139 165" fill="none" xmlns="http://www.w3.org/2000/svg">
<path fill-rule="evenodd" clip-rule="evenodd" d="M110.033 26.7179C108.078 34.2249 101.254 39.7669 93.133 39.7669C83.488 39.7669 75.668 31.9479 75.669 22.3019C75.6656 19.2181 76.4826 16.1889 78.036 13.5249L78.063 13.4819C78.0858 13.4434 78.1084 13.405 78.1309 13.3665C78.1804 13.2821 78.2298 13.1978 78.282 13.1139L78.292 13.1169L81.442 8.12094C81.442 8.12094 81.997 6.78894 84.6 6.78894C87.203 6.78894 97.205 7.01494 106.975 9.22694C106.975 9.22694 108.889 9.80394 109.51 12.5229C110.133 15.2419 110.584 21.7599 110.584 21.7599C110.592 21.9399 110.598 22.1199 110.598 22.3019C110.598 22.3479 110.596 22.392 110.594 22.437V22.4371V22.4371L110.594 22.4399L116.135 23.2649C117.313 23.4403 118.126 24.5376 117.951 25.7159C117.775 26.8936 116.678 27.7061 115.5 27.5319L110.033 26.7179ZM131.535 79.0739V79.0759C135.38 79.4011 138.337 82.6159 138.339 86.4749C138.339 88.4457 137.557 90.3358 136.163 91.7294C134.77 93.123 132.88 93.9059 130.909 93.9059L97.552 93.0859C95.087 92.9689 93.468 89.6949 93.468 89.6949L90.695 83.8389L86.765 98.1699C86.765 98.1699 86.456 100.174 87.843 100.944C89.229 101.715 110.497 113.273 110.497 113.273C110.497 113.273 114.04 114.813 115.118 120.207C116.075 124.987 119.837 147.068 120.679 152.033C121.588 155.816 119.424 159.659 115.719 160.844C112.013 162.028 108.021 160.153 106.567 156.545H106.565C106.334 155.975 106.174 155.371 106.092 154.741L98.477 125.679L75.592 117.048C75.592 117.048 71.508 116.123 70.66 118.127C69.422 121.053 64.881 135.001 64.881 135.001C64.881 135.001 63.958 137.314 62.108 138.854C60.258 140.395 32.533 162.445 32.533 162.445C30.5825 164.396 27.7117 165.105 25.077 164.288C22.4423 163.47 20.4774 161.26 19.9737 158.548C19.47 155.836 20.5104 153.068 22.676 151.359L46.236 130.996L49.318 113.891L58.718 115.74C58.718 115.74 59.281 115.879 60.009 115.775H60.007C59.9771 115.773 59.9472 115.771 59.9175 115.769H59.9173C59.8316 115.764 59.7463 115.758 59.661 115.742L8.46497 105.819C6.84077 105.5 5.77942 103.929 6.08997 102.303L13.501 64.0609C13.8223 62.4384 15.3919 61.3787 17.017 61.6869L32.195 64.6279L32.827 60.1089C32.827 60.1089 33.135 52.0959 40.995 50.2459C48.854 48.3969 72.74 43.9279 72.74 43.9279C72.74 43.9279 83.99 41.6159 89.539 47.3179C95.086 53.0199 95.547 55.7939 95.547 55.7939L104.793 76.9059L131.535 79.0739ZM60.104 63.8069L58.315 69.6869L68.213 71.6059L47.999 67.6889L48.547 65.1929L60.104 63.8069ZM12.551 100.499L57.855 109.28L64.126 76.9239L46.713 73.5499L43.812 86.7729C44.0814 88.8893 43.4278 91.0193 42.0178 92.6203C40.6077 94.2213 38.5774 95.1388 36.444 95.1389C34.3082 95.1384 32.2759 94.2187 30.8657 92.6146C29.4556 91.0106 28.8039 88.8772 29.077 86.7589H29.075L29.093 86.6319C29.0945 86.6222 29.0958 86.6118 29.0972 86.6013C29.0995 86.5839 29.1019 86.5661 29.105 86.5499L29.745 82.1439L31.363 70.5769L18.821 68.1459L12.551 100.499ZM25.05 18.0079H63.077C64.177 18.0079 65.077 17.1119 65.077 16.0179C65.077 14.9239 64.177 14.0279 63.077 14.0279H25.05C23.95 14.0279 23.05 14.9239 23.05 16.0179C23.05 17.1119 23.95 18.0079 25.05 18.0079ZM36.08 26.0149C36.08 24.9209 36.98 24.0249 38.08 24.0249H61.039C62.1396 24.0249 63.0335 24.9143 63.039 26.0149C63.039 27.1089 62.139 28.0049 61.039 28.0049H38.08C36.98 28.0049 36.08 27.1089 36.08 26.0149Z" fill="white"/>
<path fill-rule="evenodd" clip-rule="evenodd" d="M103.998 20.6829C102.043 28.1899 95.2189 33.7319 87.0979 33.7319C77.4529 33.7319 69.6329 25.9129 69.6329 16.2669C69.6296 13.1831 70.4465 10.1539 71.9999 7.48991L72.0269 7.44691C72.05 7.40801 72.0728 7.36901 72.0956 7.33003C72.1448 7.24577 72.194 7.16164 72.2459 7.07891L72.2559 7.08191L75.4059 2.08591C75.4059 2.08591 75.9599 0.753906 78.5639 0.753906C81.1679 0.753906 91.1699 0.979906 100.94 3.19191C100.94 3.19191 102.854 3.76891 103.475 6.48791C104.098 9.20691 104.549 15.7249 104.549 15.7249C104.557 15.9049 104.563 16.0849 104.563 16.2669C104.563 16.3139 104.561 16.3589 104.559 16.4049L110.1 17.2299C111.278 17.4053 112.091 18.5026 111.916 19.6809C111.74 20.8586 110.643 21.6711 109.465 21.4969L103.998 20.6829ZM125.5 73.0389V73.0409C129.455 73.391 132.436 76.7888 132.268 80.7558C132.1 84.7227 128.843 87.8568 124.873 87.8719L91.5159 87.0519C89.0509 86.9349 87.4319 83.6609 87.4319 83.6609L84.6589 77.8049L80.7289 92.1359C80.7289 92.1359 80.4199 94.1399 81.8069 94.9099C83.1929 95.6819 104.46 107.237 104.46 107.237C104.46 107.237 108.003 108.777 109.081 114.171C110.038 118.951 113.8 141.032 114.642 145.997C115.551 149.78 113.387 153.623 109.682 154.808C105.976 155.992 101.984 154.117 100.53 150.509H100.528C100.297 149.939 100.137 149.335 100.055 148.705L92.4399 119.643L69.5549 111.012C69.5549 111.012 65.4709 110.087 64.6229 112.091C63.3849 115.017 58.8439 128.965 58.8439 128.965C58.8439 128.965 57.9209 131.278 56.0709 132.818C54.2209 134.359 26.4959 156.409 26.4959 156.409C24.5454 158.36 21.6747 159.069 19.04 158.252C16.4053 157.434 14.4403 155.224 13.9366 152.512C13.4329 149.8 14.4734 147.032 16.6389 145.323L40.1989 124.96L43.2809 107.855L52.6809 109.704C52.6809 109.704 53.2439 109.843 53.9719 109.739C54.0024 109.741 54.0328 109.745 54.0631 109.749C54.1065 109.754 54.1495 109.76 54.1919 109.76C55.6283 109.756 56.8624 108.739 57.1399 107.33L64.5519 69.0869C64.8619 67.461 63.8009 65.8898 62.1769 65.5699L52.2789 63.6509L54.0679 57.7709L42.5109 59.1569L37.7769 80.7379C38.0463 82.8542 37.3928 84.9843 35.9827 86.5853C34.5727 88.1863 32.5423 89.1038 30.4089 89.1039C28.2731 89.1033 26.2409 88.1837 24.8307 86.5796C23.4205 84.9755 22.7688 82.8422 23.0419 80.7239H23.0399L23.0579 80.5969C23.0619 80.5709 23.0649 80.5409 23.0699 80.5149L23.7099 76.1089L26.7919 54.0729C26.7919 54.0729 27.0999 46.0599 34.9599 44.2099C42.8189 42.3619 66.7049 37.8929 66.7049 37.8929C66.7049 37.8929 77.9549 35.5809 83.5039 41.2829C89.0509 46.9849 89.5119 49.7589 89.5119 49.7589L98.7579 70.8709L125.5 73.0389Z" fill="#3A3A3A"/>
<path d="M53.9709 109.739H53.9729C54.0459 109.745 54.1199 109.76 54.1929 109.76C55.5999 109.76 56.8639 108.76 57.1409 107.33L64.5529 69.087C64.863 67.4611 63.802 65.8899 62.1779 65.57L41.9639 61.653L40.6779 67.515L58.0909 70.889L51.8199 103.243L6.51594 94.464L12.7859 62.111L25.3279 64.542L26.1599 58.592L10.9819 55.65C9.35691 55.3417 7.78731 56.4015 7.46594 58.024L0.0549374 96.268C-0.255618 97.8938 0.805731 99.4651 2.42994 99.784L53.6259 109.707C53.7399 109.729 53.8549 109.73 53.9709 109.739Z" fill="#F0C42E"/>
<path fill-rule="evenodd" clip-rule="evenodd" d="M57.042 11.9719C58.1427 11.972 59.0365 11.0826 59.042 9.98194C59.042 8.88794 58.142 7.99294 57.042 7.99194H19.015C17.915 7.99194 17.015 8.88794 17.015 9.98194C17.015 11.0759 17.915 11.9719 19.015 11.9719H57.042ZM55.004 21.9699C56.104 21.9699 57.004 21.0739 57.004 19.9799C57.004 18.8859 56.104 17.9899 55.003 17.9899H32.044C30.9433 17.9899 30.0495 18.8793 30.044 19.9799C30.044 21.0739 30.944 21.9699 32.044 21.9699H55.004Z" fill="#F0C52E"/>
</svg>
