<svg width="172" height="194" viewBox="0 0 172 194" fill="none" xmlns="http://www.w3.org/2000/svg">
<path fill-rule="evenodd" clip-rule="evenodd" d="M143.883 45.041C146.006 53.849 144.362 60.647 138.85 65.824C136.279 68.238 132.498 69.462 127.61 69.463C126.436 69.463 125.315 69.388 124.288 69.282L141.233 86.241C143.391 88.845 146.145 95.185 141.133 100.543L141.031 100.647L135.513 106.163C133.286 108.246 130.888 108.987 128.661 108.987C125.528 108.987 122.731 107.522 121.21 106.262L121.038 106.104L104.821 89.887C104.921 93.542 104.19 98.362 100.827 102.975C97.694 107.271 92.422 109.542 85.582 109.542C82.147 109.542 79.5413 108.95 79.4087 108.919L79.4086 108.919L79.407 108.919C78.5254 108.716 77.8228 108.051 77.5701 107.183C77.3174 106.314 77.5541 105.377 78.189 104.732L85.573 97.216C84.536 93.371 82.237 91.858 80.914 91.291L72.619 98.55C71.9991 99.0919 71.1523 99.2939 70.3546 99.0904C69.5568 98.8868 68.9104 98.3036 68.626 97.531C64.778 87.075 71.106 79.239 71.377 78.91C75.103 74.725 79.91 72.551 85.339 72.551C88.119 72.551 90.502 73.125 92.002 73.603L95.297 70.309L86.06 60.027L82.794 64.744L69.07 44.703L79.671 34.1L99.713 47.824L94.996 51.09L105.28 60.326L108.768 56.838C107.754 53.409 106.311 45.305 112.311 38.367C115.454 34.732 119.604 32.811 124.313 32.811C129.149 32.811 132.977 34.841 133.137 34.927C133.392 35.0636 133.622 35.244 133.815 35.46L134.001 35.667C134.89 36.6601 134.844 38.1753 133.897 39.113L127.094 45.842C127.883 48.721 130.121 50.377 131.559 51.172L139.78 43.769C140.435 43.1808 141.351 42.9803 142.192 43.241C143.033 43.5017 143.675 44.1853 143.883 45.041ZM78.694 174.636L78.4772 174.367C76.9651 172.493 68.0282 161.417 66.085 158.876C64.764 157.149 62.778 156.198 60.492 156.198C57.932 156.198 55.656 157.368 54.98 157.751L49.494 160.494C47.721 160.015 43.907 158.544 40.214 154.226C36.93 150.387 36.953 145.24 37.128 143.127L43.021 137.234C46.114 134.517 45.473 130.718 44.267 128.803L44.048 128.492C44.048 128.492 31.186 112.271 29.382 109.994C28.393 108.745 26.907 108.056 25.198 108.056C22.349 108.056 19.319 110.031 18.442 110.648C7.55699 118.397 6.85599 125.21 6.81099 125.961L6.78699 126.375L6.86099 126.784C13.273 162.51 32.887 177.921 42.314 185.327C43.462 186.228 44.454 187.008 45.168 187.633C51.731 193.38 58.93 194 61.721 194C64.096 193.999 66.201 193.595 67.81 192.829C72.176 190.751 77.235 184.819 78.682 183.051C81.183 179.992 79.965 176.452 78.85 174.843L78.694 174.636ZM64.801 186.509C64.302 186.746 63.231 187 61.72 187C60.16 187 54.688 186.666 49.776 182.368C48.9295 181.628 47.8816 180.804 46.6693 179.85L46.637 179.825C37.943 172.995 19.908 158.824 13.857 126.141C14.146 125.162 15.686 121.203 22.477 116.37C23.141 115.916 23.8513 115.533 24.596 115.228L38.098 132.258L30.57 139.785L30.367 140.84C30.286 141.262 28.456 151.249 34.894 158.777C41.18 166.126 48.144 167.444 49.477 167.633L50.559 167.787L58.203 163.964L58.421 163.846C58.702 163.679 59.756 163.198 60.492 163.198L60.5109 163.198C60.529 163.198 60.5452 163.199 60.5595 163.2C60.5668 163.2 60.5736 163.2 60.58 163.201C62.729 166.001 71.685 177.098 73.08 178.825C73.0807 178.829 73.0821 178.832 73.084 178.835C70.522 181.93 66.911 185.504 64.801 186.509ZM85.551 51.978L82.817 55.927L75.541 45.302L80.272 40.57L90.897 47.846L86.947 50.58L101.739 63.866L97.645 67.959L98.836 66.767L85.551 51.978ZM96.785 100.029C101.728 93.248 99.222 85.815 99.113 85.502C98.7988 84.5978 99.0239 83.5937 99.694 82.91L118.194 64.243C118.828 63.6043 119.756 63.3549 120.624 63.59L120.626 63.5906C120.727 63.6169 123.957 64.463 127.606 64.463C130.065 64.463 133.416 64.067 135.424 62.18C138.713 59.092 140.106 55.402 139.733 50.538L133.684 55.985C133.012 56.5892 132.067 56.7845 131.211 56.496C130.873 56.382 122.916 53.605 121.904 45.305C121.811 44.5369 122.078 43.7688 122.629 43.225L127.676 38.232C126.694 37.994 125.541 37.811 124.311 37.811C121.051 37.811 118.285 39.098 116.09 41.637C110.438 48.173 113.897 56.43 113.932 56.513C114.339 57.4527 114.13 58.5458 113.405 59.269L94.405 78.269C93.6635 79.0101 92.5385 79.2102 91.587 78.77C91.569 78.761 88.853 77.55 85.338 77.55C81.34 77.55 77.934 79.086 75.213 82.116C74.867 82.559 71.932 86.488 72.454 92.048L78.658 86.62C79.2144 86.1357 79.9556 85.9203 80.685 86.031C81.023 86.083 88.977 87.42 90.768 97.567C90.908 98.363 90.654 99.178 90.088 99.754L85.385 104.541C89.037 104.555 94.015 103.827 96.785 100.029ZM137.525 97.079L132.046 102.555C128.798 105.535 125.146 102.987 124.47 102.468L105.827 83.823L118.733 70.8012L137.44 89.507C137.9 90.099 140.537 93.794 137.525 97.079ZM118.733 70.8012L118.733 70.801L120.768 68.748L118.733 70.8012ZM121.473 68.882L121.539 68.894C121.517 68.8902 121.495 68.8862 121.473 68.882Z" fill="white"/>
<path fill-rule="evenodd" clip-rule="evenodd" d="M39.24 71.924C39.24 35.5159 68.754 6.00195 105.162 6.00195C141.57 6.00195 171.084 35.5159 171.084 71.924C171.081 77.0075 170.491 82.0737 169.326 87.0219C169.306 87.1064 169.287 87.1904 169.268 87.2745C169.23 87.4445 169.191 87.615 169.148 87.791C169.043 88.218 168.931 88.644 168.818 89.068C168.79 89.1733 168.764 89.2759 168.738 89.3784C168.697 89.5423 168.655 89.7058 168.607 89.88C154.077 142.259 96.638 163.502 96.638 163.502V137.278C64.26 133.096 39.24 105.441 39.24 71.924ZM162.504 85.451L162.51 85.424C163.552 80.9991 164.08 76.4688 164.083 71.923C164.083 39.433 137.649 13.001 105.161 13.001C72.671 13.001 46.239 39.433 46.239 71.923C46.239 101.446 68.291 126.558 97.534 130.335L103.638 131.123V152.625C108.949 149.914 115.984 145.888 123.357 140.45C143.343 125.708 156.299 108.064 161.863 88.008C161.892 87.9004 161.92 87.7924 161.945 87.684L162.049 87.284C162.159 86.8739 162.256 86.499 162.35 86.123C162.363 86.0696 162.376 86.0169 162.388 85.9646C162.416 85.8444 162.442 85.7264 162.469 85.608L162.498 85.478L162.504 85.451Z" fill="white"/>
<path fill-rule="evenodd" clip-rule="evenodd" d="M39.0289 181.634C45.5939 187.378 52.792 187.998 55.583 187.998C57.958 187.997 60.063 187.593 61.6699 186.83C66.0369 184.752 71.0949 178.821 72.5419 177.052C75.0429 173.993 73.8249 170.453 72.7099 168.844L72.5549 168.637C72.4499 168.507 62.0599 155.641 59.9459 152.877C58.625 151.15 56.639 150.199 54.353 150.199C51.7929 150.199 49.5169 151.369 48.841 151.752L43.3549 154.495C41.582 154.016 37.7669 152.544 34.0749 148.227C30.7909 144.388 30.8139 139.24 30.9889 137.128L36.882 131.235C39.9749 128.518 39.334 124.719 38.1279 122.804L37.909 122.493C37.909 122.493 25.0469 106.272 23.2429 103.995C22.2529 102.745 20.7669 102.057 19.0589 102.057C16.2099 102.057 13.1799 104.032 12.3029 104.649C1.41795 112.398 0.715949 119.21 0.671949 119.962L0.647949 120.376L0.721949 120.785C7.13385 156.51 26.7483 171.922 36.1745 179.328L36.1749 179.328L36.1978 179.346C37.3361 180.24 38.3197 181.013 39.0289 181.634ZM40.4999 173.824C31.8059 166.994 13.7709 152.823 7.71995 120.14C8.00795 119.161 9.54795 115.202 16.341 110.369C16.993 109.915 17.8489 109.464 18.4599 109.227L31.962 126.257L24.434 133.784L24.2309 134.839C24.1499 135.261 22.32 145.249 28.7579 152.776C35.0439 160.124 42.0079 161.443 43.3409 161.632L44.4229 161.786L52.0669 157.963L52.2849 157.845C52.5659 157.678 53.6199 157.197 54.3559 157.197C54.3853 157.197 54.4147 157.198 54.4439 157.2C56.5929 160 65.5499 171.097 66.9439 172.824L66.948 172.834C64.3859 175.929 60.7739 179.503 58.6639 180.508C58.165 180.745 57.0939 180.999 55.5829 180.999C54.0229 180.999 48.5509 180.665 43.6389 176.367C42.7927 175.627 41.7451 174.803 40.5333 173.85L40.4999 173.824Z" fill="#3A3A3A"/>
<path fill-rule="evenodd" clip-rule="evenodd" d="M73.2697 102.917C73.4025 102.948 76.0072 103.54 79.443 103.54C86.283 103.54 91.555 101.269 94.688 96.973C99.758 90.019 98.856 82.58 98.127 79.399L114.631 62.746C116.146 63.053 118.681 63.46 121.47 63.46C126.359 63.46 130.142 62.236 132.712 59.822C138.223 54.645 139.868 47.848 137.745 39.039C137.539 38.1825 136.896 37.498 136.055 37.2371C135.213 36.9762 134.297 37.1775 133.642 37.767L125.42 45.17C123.983 44.375 121.744 42.719 120.955 39.84L127.758 33.111C128.707 32.173 128.752 30.658 127.862 29.665L127.676 29.458C127.483 29.242 127.254 29.062 126.999 28.925C126.838 28.838 123.011 26.809 118.174 26.809C113.465 26.809 109.315 28.731 106.172 32.365C100.172 39.302 101.616 47.406 102.629 50.836L85.863 67.601C84.362 67.123 81.98 66.549 79.2 66.549C73.771 66.549 68.964 68.723 65.238 72.908C64.967 73.237 58.639 81.073 62.487 91.53C62.7725 92.3017 63.419 92.8839 64.2163 93.0872C65.0136 93.2905 65.86 93.0889 66.48 92.548L74.775 85.289C76.098 85.857 78.397 87.369 79.434 91.214L72.05 98.73C71.4165 99.375 71.1806 100.312 71.4331 101.18C71.6857 102.048 72.3873 102.712 73.268 102.917L73.2697 102.917ZM90.647 94.027C87.878 97.825 82.898 98.554 79.247 98.539L83.951 93.751C84.5179 93.1747 84.7709 92.3599 84.63 91.564C82.839 81.417 74.885 80.08 74.548 80.028C73.8186 79.9163 73.077 80.1318 72.521 80.617L66.317 86.045C65.794 80.485 68.729 76.555 69.076 76.113C71.797 73.083 75.203 71.547 79.201 71.547C82.7084 71.547 85.4213 72.7537 85.4509 72.7669L85.451 72.767C86.4022 73.2069 87.5269 73.0069 88.268 72.266L107.268 53.266C107.992 52.543 108.201 51.45 107.796 50.51C107.761 50.427 104.302 42.17 109.953 35.634C112.15 33.096 114.915 31.808 118.174 31.808C119.308 31.815 120.438 31.9563 121.539 32.229L116.492 37.222C115.941 37.7656 115.674 38.5339 115.768 39.302C116.78 47.602 124.737 50.379 125.075 50.493C125.931 50.781 126.876 50.5857 127.548 49.982L133.597 44.535C133.969 49.399 132.576 53.089 129.288 56.177C127.281 58.064 123.928 58.46 121.47 58.46C117.781 58.46 114.518 57.595 114.488 57.587C113.62 57.3516 112.692 57.601 112.058 58.24L93.558 76.907C92.8866 77.5902 92.661 78.5953 92.976 79.5C93.085 79.813 95.591 87.246 90.647 94.027Z" fill="#F0C42E"/>
<path fill-rule="evenodd" clip-rule="evenodd" d="M89.158 64.307L79.921 54.025L76.656 58.742L62.932 38.701L73.533 28.098L93.575 41.822L88.858 45.088L99.141 54.324L95.6 57.865L80.809 44.579L84.759 41.845L74.134 34.569L69.402 39.301L76.678 49.925L79.413 45.976L92.698 60.766L89.158 64.307ZM114.63 62.746C115.793 62.98 116.967 63.1582 118.147 63.28L135.094 80.239C137.252 82.843 140.007 89.184 134.995 94.542L134.893 94.645L129.375 100.161C127.147 102.244 124.75 102.985 122.522 102.985C119.39 102.985 116.593 101.52 115.072 100.26L114.899 100.102L98.682 83.884C98.632 82.029 98.372 80.469 98.127 79.399L99.69 77.821L118.332 96.466C119.007 96.985 122.66 99.533 125.908 96.553L131.386 91.077C134.399 87.792 131.762 84.097 131.302 83.505L112.596 64.799L114.63 62.746Z" fill="#3A3A3A"/>
<path fill-rule="evenodd" clip-rule="evenodd" d="M33.1021 65.922C33.1021 29.514 62.616 0 99.023 0C135.432 0 164.945 29.514 164.946 65.922C164.943 71.0056 164.353 76.0718 163.188 81.02C163.176 81.0719 163.165 81.1236 163.153 81.1753C163.107 81.3776 163.061 81.5795 163.011 81.789C162.905 82.216 162.794 82.642 162.68 83.066C162.651 83.1749 162.625 83.2807 162.598 83.3866C162.558 83.5471 162.517 83.7075 162.47 83.878C147.939 136.257 90.5 157.5 90.5 157.5V131.276C58.1221 127.094 33.1021 99.439 33.1021 65.922ZM157.945 65.922C157.945 33.432 131.512 7 99.023 7C66.5341 7 40.1021 33.432 40.1011 65.921C40.1011 95.444 62.1521 120.556 91.3951 124.333L97.499 125.121V146.623C102.81 143.912 109.845 139.886 117.218 134.448C137.204 119.706 150.16 102.062 155.724 82.006C155.753 81.898 155.781 81.79 155.807 81.682L155.91 81.282C156.021 80.872 156.118 80.497 156.212 80.121C156.254 79.945 156.292 79.776 156.33 79.606L156.359 79.476L156.366 79.449L156.372 79.422C157.416 74.972 157.945 70.43 157.945 65.922Z" fill="#3A3A3A"/>
</svg>
