<svg width="133" height="70" viewBox="0 0 133 70" fill="none" xmlns="http://www.w3.org/2000/svg">
<path fill-rule="evenodd" clip-rule="evenodd" d="M25.7741 0.488C25.6451 0.771 25.5161 2.596 25.5161 4.6C25.5161 4.85264 25.5167 5.08846 25.5172 5.30862C25.5219 7.14127 25.5238 7.88881 25.154 8.2153C24.8992 8.44021 24.468 8.46529 23.7398 8.50765C23.6107 8.51516 23.4724 8.5232 23.3241 8.533L22.2941 8.61L22.1641 11.155L22.0351 13.699L20.8491 13.982C18.2691 14.65 16.8491 16.577 17.0571 19.276C17.1851 21.203 18.0871 22.617 19.6361 23.363C20.7451 23.876 21.1061 23.901 30.8821 23.901C36.4271 23.901 41.0191 23.98 41.0701 24.081C41.1211 24.211 39.9601 33.489 38.4901 44.721C37.0461 55.951 35.8081 65.718 35.7821 66.387C35.7311 68.004 36.6081 69.007 38.1301 69.007C39.3671 69.007 40.1421 68.367 40.4511 67.107C40.5811 66.593 41.9471 56.773 43.4691 45.285C44.9911 33.822 46.3321 24.416 46.4091 24.416C46.5131 24.416 47.4931 25.829 48.6021 27.552C48.7844 27.8389 48.9533 28.1067 49.111 28.3569C50.2457 30.1563 50.8021 31.0385 51.6016 31.469C52.3708 31.8831 53.365 31.8791 55.3156 31.8714C55.6015 31.8702 55.9078 31.869 56.2371 31.869H60.5961V37.499L55.4631 37.576C50.7431 37.653 50.2531 37.703 49.5821 38.191C48.0091 39.348 47.9571 39.606 47.9571 49.168C47.9571 58.702 47.9831 58.96 49.4791 60.218L50.3301 60.913H81.6951L82.5461 60.217C84.0421 58.96 84.0661 58.702 84.0661 49.167C84.0661 39.607 84.0161 39.348 82.4441 38.191C81.7731 37.703 81.2831 37.653 76.5621 37.576L71.4301 37.499V31.869H75.7901C76.1191 31.869 76.4254 31.8702 76.7111 31.8714C78.6607 31.8791 79.6545 31.8831 80.4234 31.4692C81.2229 31.0388 81.7792 30.1567 82.9139 28.3572C83.0717 28.107 83.2407 27.839 83.4231 27.552C84.5331 25.829 85.5131 24.416 85.6171 24.416C85.6931 24.416 87.0351 33.822 88.5571 45.285C90.0791 56.773 91.4461 66.593 91.5751 67.106C91.8851 68.366 92.6571 69.008 93.8961 69.008C95.4171 69.008 96.2961 68.004 96.2431 66.387C96.2171 65.717 94.9791 55.951 93.5331 44.721C92.0651 33.489 90.9031 24.211 90.9561 24.081C91.0061 23.98 95.5971 23.901 101.146 23.901C110.92 23.901 111.281 23.876 112.389 23.363C113.937 22.617 114.839 21.203 114.969 19.276C115.175 16.577 113.757 14.65 111.177 13.982L109.99 13.699L109.863 11.155L109.733 8.61L108.702 8.533C108.554 8.5232 108.415 8.51515 108.286 8.50764C107.558 8.46528 107.126 8.44019 106.871 8.21514C106.501 7.8881 106.502 7.13881 106.507 5.30063C106.507 5.08276 106.508 4.84958 106.508 4.6C106.508 2.596 106.38 0.771 106.251 0.488C106.045 0.128 105.708 0 104.884 0C104.265 0 103.646 0.128 103.464 0.309C103.258 0.514 103.154 1.774 103.154 4.241C103.154 6.708 103.052 7.968 102.845 8.173C102.665 8.353 101.944 8.481 101.195 8.481C99.5701 8.481 99.5451 8.533 99.5451 11.591V13.878H32.4801V11.591C32.4801 8.533 32.4561 8.481 30.8301 8.481C30.0821 8.481 29.3601 8.352 29.1801 8.173C28.9731 7.968 28.8701 6.708 28.8701 4.241C28.8701 1.774 28.7671 0.514 28.5601 0.309C28.3801 0.129 27.7601 0 27.1421 0C26.3171 0 25.9821 0.128 25.7741 0.488ZM12.0521 0.258C6.50706 0.745 1.83806 1.85 0.575055 2.93C0.182738 3.26472 0.00359665 3.41756 0.000409537 3.57399C-0.00226875 3.70544 0.119309 3.83942 0.343055 4.086C0.987055 4.806 4.05606 5.731 7.59006 6.323C11.5881 6.991 20.1001 7.016 21.3141 6.374C22.5251 5.706 22.9381 4.96 22.9381 3.393C22.9381 1.774 22.3181 0.977 20.7201 0.54C19.2741 0.154 14.9401 0 12.0521 0.258ZM74.7831 46.776C74.0091 44.001 71.5061 41.507 68.6171 40.608C66.6041 39.966 65.3161 39.966 63.3041 40.608C60.4931 41.506 57.9911 44.053 57.2431 46.776C56.8041 48.32 56.9341 50.992 57.5261 52.56C58.2231 54.435 60.2081 56.569 62.0931 57.495C63.3821 58.137 63.8461 58.214 66.0131 58.214C68.1801 58.214 68.6441 58.137 69.9341 57.495C71.8141 56.57 73.8031 54.435 74.4991 52.56C75.0931 50.992 75.2221 48.319 74.7831 46.776Z" fill="#363636"/>
<path fill-rule="evenodd" clip-rule="evenodd" d="M109.346 1.77399C109.758 1.05299 110.996 0.513991 112.776 0.282991C115.046 -0.0250087 116.053 -0.0250087 119.534 0.257991C125.492 0.744991 130.11 1.79999 131.45 2.92999C132.173 3.54599 132.173 3.54599 131.683 4.08599C131.038 4.80599 127.969 5.73099 124.435 6.32299C122.37 6.68199 120.229 6.81099 116.568 6.81099C111.152 6.81099 110.428 6.65599 109.5 5.34599C109.036 4.67799 108.959 2.54399 109.346 1.77399ZM31.579 3.59799C31.579 1.28499 32.172 0.821991 36.092 0.153991H36.091C36.995 -8.73581e-06 42.516 0.231991 44.991 0.539991C49.143 1.05399 52.78 2.02999 54.045 2.92999C55.668 4.13799 51.207 5.85999 44.347 6.68199C41.019 7.06799 35.397 7.01599 33.847 6.55399C32.042 6.01399 31.579 5.42299 31.579 3.59799ZM60.725 50.168C60.287 48.087 61.757 45.363 63.794 44.438H63.793C64.387 44.181 65.367 43.949 66.013 43.949C68.437 43.949 70.603 45.697 71.171 48.087C71.711 50.323 70.706 52.712 68.721 53.87C65.548 55.721 61.499 53.845 60.725 50.168ZM89.484 0.257991C83.165 0.847991 77.62 2.33899 77.62 3.44399C77.62 5.16599 85.46 6.91399 93.25 6.93899C99.054 6.93899 100.446 6.29699 100.446 3.59899C100.446 1.77399 99.827 0.976991 98.073 0.513991C96.423 0.102991 92.398 -8.71718e-06 89.484 0.257991Z" fill="#363636"/>
</svg>
