<svg width="164" height="36" viewBox="0 0 164 36" fill="none" xmlns="http://www.w3.org/2000/svg">
<path fill-rule="evenodd" clip-rule="evenodd" d="M14.32 1.40003C18.96 1.40003 22.84 3.00801 25.96 6.22403C29.08 9.44004 30.64 13.432 30.64 18.2C30.64 22.9681 29.08 26.96 25.96 30.176C22.84 33.392 18.96 35 14.32 35H0.880005V1.40003H14.32ZM14.32 27.608C16.976 27.608 19.128 26.752 20.776 25.04C22.424 23.328 23.248 21.048 23.248 18.2C23.248 15.352 22.424 13.072 20.776 11.36C19.128 9.64802 16.976 8.79203 14.32 8.79203H8.56V27.608H14.32ZM43.12 27.608H56.56V35H35.44V1.40003H56.32V8.79203H43.12V14.36H55.12V21.656H43.12V27.608ZM69.424 35L58.48 1.40003H66.88L74.32 26.12L81.76 1.40003H90.16L79.216 35H69.424ZM93.52 1.40003H101.2V35H93.52V1.40003ZM123.472 35.672C118.448 35.672 114.28 34 110.968 30.656C107.656 27.312 106 23.1601 106 18.2C106 13.24 107.656 9.08804 110.968 5.74403C114.28 2.40001 118.448 0.728027 123.472 0.728027C126.48 0.728027 129.264 1.42402 131.824 2.81603C134.384 4.20803 136.4 6.10402 137.872 8.50403L131.248 12.344C130.512 11.032 129.456 10.016 128.08 9.29603C126.704 8.57602 125.168 8.21603 123.472 8.21603C120.496 8.21603 118.12 9.12802 116.344 10.952C114.568 12.776 113.68 15.192 113.68 18.2C113.68 21.208 114.568 23.624 116.344 25.448C118.12 27.272 120.496 28.184 123.472 28.184C125.168 28.184 126.712 27.816 128.104 27.08C129.496 26.344 130.544 25.336 131.248 24.056L137.872 27.896C136.432 30.296 134.432 32.192 131.872 33.584C129.312 34.976 126.512 35.672 123.472 35.672ZM149.632 27.608H163.072V35H141.952V1.40003H162.832V8.79203H149.632V14.36H161.632V21.656H149.632V27.608Z" fill="#FFC600"/>
</svg>
