<svg xmlns="http://www.w3.org/2000/svg" width="20" height="20">
  <path fill="white" d="M19.906 14.61a.995.995 0 0 0-.066-.13c-.352-.625-1.012-1.394-1.992-2.304l-.04-.04h-.011c-.442-.425-.723-.71-.844-.855-.219-.281-.265-.562-.144-.844.082-.218.394-.671.937-1.363.285-.37.508-.668.676-.886 1.203-1.598 1.723-2.622 1.562-3.067l-.062-.105c-.04-.059-.145-.121-.324-.172a1.657 1.657 0 0 0-.664-.028l-3 .024a.48.48 0 0 0-.211.004l-.133.035-.055.027-.039.032a.38.38 0 0 0-.117.105.628.628 0 0 0-.102.18 16.82 16.82 0 0 1-1.117 2.351c-.226.38-.46.75-.707 1.117a5.6 5.6 0 0 1-.543.7 4.866 4.866 0 0 1-.394.359c-.121.09-.207.129-.27.113-.062-.015-.125-.031-.18-.039a.678.678 0 0 1-.234-.258 1.039 1.039 0 0 1-.117-.406 2.97 2.97 0 0 1-.04-.422 5.359 5.359 0 0 1 .009-.5c.004-.218.007-.363.007-.437 0-.266.008-.551.016-.864.012-.308.016-.55.027-.73.004-.18.012-.375.012-.574 0-.2-.016-.363-.039-.477a1.619 1.619 0 0 0-.11-.328.58.58 0 0 0-.21-.254c-.11-.062-.23-.11-.352-.14a7.063 7.063 0 0 0-1.406-.137c-1.293-.012-2.125.074-2.492.25a1.62 1.62 0 0 0-.399.312c-.125.157-.14.243-.05.254.417.059.714.211.886.45l.067.125c.046.09.093.246.14.472.051.23.082.485.094.762.035.512.035.941 0 1.305-.02.285-.059.566-.098.847a1.743 1.743 0 0 1-.136.489c-.067.124-.106.199-.125.23a.25.25 0 0 1-.059.05.763.763 0 0 1-.281.052c-.09 0-.211-.051-.352-.145-.16-.117-.3-.25-.43-.402a5.345 5.345 0 0 1-.507-.711A12.628 12.628 0 0 1 5.3 7.55l-.164-.301c-.149-.281-.29-.566-.426-.855-.176-.352-.336-.711-.48-1.079a.633.633 0 0 0-.25-.328l-.055-.035a.834.834 0 0 0-.164-.09 1.309 1.309 0 0 0-.242-.066l-2.852.02c-.293 0-.492.07-.594.199l-.043.062A.374.374 0 0 0 0 5.25a.865.865 0 0 0 .063.277c.41.97.863 1.91 1.359 2.836.488.907.918 1.64 1.277 2.2.57.87 1.188 1.71 1.848 2.519l.285.313.262.25c.168.168.41.367.734.601.348.242.703.473 1.074.688.395.222.848.41 1.368.55.52.141 1.03.2 1.527.172h1.2c.241-.02.425-.097.55-.23l.043-.051c.031-.063.058-.125.078-.191.02-.094.035-.192.035-.29-.012-.269.012-.542.067-.804.054-.242.109-.422.18-.543.066-.121.14-.223.222-.309a.71.71 0 0 1 .176-.148c.039-.016.062-.031.086-.04.164-.054.359 0 .586.165.226.16.437.363.636.601.23.278.469.547.715.809.274.297.52.52.727.668l.21.125c.141.082.317.16.54.227.187.07.39.09.586.054l2.664-.043c.27 0 .468-.043.617-.129.144-.09.234-.183.258-.289a.714.714 0 0 0 .007-.351 1.119 1.119 0 0 0-.074-.278Zm0 0"/>
</svg>
